<svg xmlns="http://www.w3.org/2000/svg" version="1.1" xmlns:xlink="http://www.w3.org/1999/xlink" xmlns:svgjs="http://svgjs.dev/svgjs" width="2000" height="2000" viewBox="0 0 2000 2000"><g transform="matrix(1,0,0,1,0,0)"><svg viewBox="0 0 280 280" data-background-color="#ffffff" preserveAspectRatio="xMidYMid meet" height="2000" width="2000" xmlns="http://www.w3.org/2000/svg" xmlns:xlink="http://www.w3.org/1999/xlink"><g id="tight-bounds" transform="matrix(1,0,0,1,0,0)"><svg viewBox="0 0 280 280" height="280" width="280"><g><svg viewBox="0 0 280 280" height="280" width="280"><g><svg viewBox="0 0 280 280" height="280" width="280"><g id="textblocktransform"><svg viewBox="0 0 280 280" height="280" width="280" id="textblock"><g><svg viewBox="0 0 280 280" height="280" width="280"><g transform="matrix(1,0,0,1,74.00336708925556,90.25672911225654)"><svg viewBox="0 0 131.99326582148888 99.48654177548693" height="99.48654177548693" width="131.99326582148888"><g id="icon-0"><svg xmlns="http://www.w3.org/2000/svg" xmlns:xlink="http://www.w3.org/1999/xlink" version="1.1" x="0" y="0" viewBox="1.063 17.256 97.72270049596342 73.65598134721111" enable-background="new 0 0 100 100" xml:space="preserve" height="99.48654177548693" width="131.99326582148888" class="icon-jxe-0" data-fill-palette-color="accent" id="jxe-0"><rect x="21.937" y="40.207" width="17.05" height="3.257" fill="#000000" data-fill-palette-color="accent"></rect><rect x="1.063" y="40.207" width="17.053" height="3.257" fill="#000000" data-fill-palette-color="accent"></rect><rect x="42.806" y="40.207" width="17.052" height="3.257" fill="#000000" data-fill-palette-color="accent"></rect><polygon points="76.5,44.795 92.472,51.461 93.429,48.329 77.46,41.663 " fill="#000000" data-fill-palette-color="accent"></polygon><path d="M57.586 17.319H45.074C43.815 17.319 42.806 18.617 42.806 20.205V37.785H59.858V20.205C59.857 18.618 58.844 17.319 57.586 17.319" fill="#000000" data-fill-palette-color="accent"></path><path d="M97.271 28.055L85.421 23.559C84.235 23.108 82.93 23.842 82.522 25.204L78.176 39.338 94.144 46.005 98.657 31.318C99.072 29.965 98.45 28.5 97.271 28.055" fill="#000000" data-fill-palette-color="accent"></path><path d="M15.85 17.256H3.329C2.079 17.256 1.064 18.684 1.064 20.458V37.785H18.117V20.458C18.117 18.684 17.104 17.256 15.85 17.256" fill="#000000" data-fill-palette-color="accent"></path><path d="M36.72 26.181H24.2C22.945 26.181 21.937 27.314 21.937 28.718V37.785H38.987V28.718C38.987 27.314 37.97 26.181 36.72 26.181" fill="#000000" data-fill-palette-color="accent"></path><path d="M42.806 88.031C42.806 89.619 43.815 90.911 45.074 90.911H57.586C58.844 90.911 59.857 89.619 59.857 88.031V45.883H42.806z" fill="#000000" data-fill-palette-color="accent"></path><path d="M21.937 88.376C21.937 89.777 22.945 90.911 24.2 90.911H36.72C37.97 90.911 38.987 89.777 38.987 88.376V45.883H21.937z" fill="#000000" data-fill-palette-color="accent"></path><path d="M64.756 83.012C64.335 84.373 64.966 85.83 66.146 86.283L77.992 90.782C79.176 91.227 80.478 90.493 80.894 89.136L91.757 53.78 75.78 47.119z" fill="#000000" data-fill-palette-color="accent"></path><path d="M1.063 87.705C1.063 89.474 2.079 90.911 3.328 90.911H15.85C17.104 90.911 18.117 89.473 18.117 87.705V45.883H1.063z" fill="#000000" data-fill-palette-color="accent"></path></svg></g></svg></g><g id="text-0"><path d="M17.09 92.32v0.001c0.415-1.199 1.031-2.159 1.848-2.88 0.815-0.715 1.736-1.216 2.762-1.504 1.027-0.288 2.049-0.412 3.067-0.372 1.019 0.034 1.955 0.199 2.808 0.495v0c1.248 0.432 2.348 1.114 3.299 2.045 0.947 0.923 1.701 1.973 2.263 3.15 0.566 1.185 0.916 2.404 1.051 3.654 0.132 1.257 0.009 2.432-0.37 3.527v0c-0.175 0.507-0.4 0.996-0.674 1.469-0.268 0.475-0.51 0.855-0.727 1.139v0c0 0 0.038 0.041 0.114 0.123 0.073 0.088 0.191 0.159 0.351 0.215v0l3.764 1.302c0.587 0.203 1.142 0.388 1.666 0.556 0.523 0.167 0.965 0.251 1.325 0.251v0c0.147-0.005 0.324-0.158 0.532-0.459 0.208-0.302 0.401-0.64 0.58-1.014 0.17-0.37 0.282-0.636 0.338-0.797v0c0.139-0.042 0.35-0.021 0.632 0.063 0.282 0.084 0.458 0.197 0.526 0.338v0c-0.325 0.78-0.617 1.472-0.873 2.075-0.249 0.599-0.507 1.285-0.775 2.058v0c-0.259 0.748-0.473 1.428-0.644 2.04-0.164 0.614-0.36 1.329-0.586 2.143v0c-0.144 0.075-0.351 0.055-0.623-0.06-0.274-0.109-0.452-0.222-0.536-0.341v0c0.056-0.161 0.129-0.433 0.221-0.816 0.085-0.386 0.141-0.768 0.168-1.146 0.029-0.384-0.017-0.611-0.138-0.681v0c-0.285-0.216-0.685-0.42-1.2-0.613-0.515-0.192-1.066-0.39-1.653-0.593v0l-15.964-5.525c-0.266-0.092-0.614-0.206-1.045-0.341-0.431-0.135-0.785-0.192-1.062-0.17v0c-0.269-0.003-0.515 0.168-0.738 0.512-0.221 0.339-0.402 0.691-0.543 1.058-0.143 0.373-0.232 0.612-0.269 0.717v0c-0.064 0.005-0.234-0.022-0.51-0.083-0.274-0.067-0.45-0.159-0.528-0.276v0c0.215-1.061 0.357-2.122 0.428-3.185 0.072-1.069 0.029-2.063-0.131-2.983v0c0.036-0.105 0.149-0.17 0.338-0.194 0.189-0.025 0.335-0.019 0.44 0.017v0c0.121 0.07 0.363 0.212 0.724 0.427 0.362 0.215 0.62 0.349 0.774 0.403v0c0.111 0.039 0.176 0.03 0.196-0.026v0c0.009-0.025-0.005-0.075-0.042-0.149v0c-0.181-0.416-0.348-0.965-0.499-1.647-0.158-0.684-0.255-1.382-0.292-2.094-0.037-0.712 0.032-1.321 0.207-1.829zM18.836 94.804v0c-0.184 0.532-0.277 1.081-0.28 1.647-0.002 0.567 0.059 1.059 0.185 1.476 0.119 0.415 0.275 0.656 0.467 0.722v0l9.354 3.238c0.667 0.231 1.286 0.213 1.856-0.054 0.57-0.267 1.052-0.65 1.446-1.15 0.403-0.504 0.683-0.985 0.842-1.442v0c0.376-1.088 0.369-2.125-0.023-3.112-0.392-0.987-1.025-1.857-1.9-2.609-0.868-0.75-1.825-1.306-2.87-1.668v0c-2.318-0.802-4.283-0.884-5.895-0.244-1.604 0.635-2.665 1.701-3.182 3.196z" fill="#000000" data-fill-palette-color="primary"></path><path d="M31.236 64.388v0c0.999-1.535 2.188-2.638 3.568-3.308 1.38-0.67 2.834-0.938 4.361-0.803 1.527 0.135 3.012 0.672 4.453 1.609v0c1.491 0.97 2.626 2.164 3.404 3.584 0.781 1.413 1.158 2.903 1.131 4.469-0.028 1.566-0.494 3.045-1.4 4.437v0c-0.988 1.519-2.183 2.618-3.585 3.298-1.405 0.685-2.877 0.957-4.415 0.814-1.538-0.142-3.028-0.682-4.47-1.62v0c-1.491-0.97-2.618-2.164-3.382-3.581-0.76-1.423-1.12-2.913-1.082-4.472 0.035-1.553 0.507-3.029 1.417-4.427zM32.155 65.548v0c-0.628 0.965-0.846 1.931-0.656 2.897 0.196 0.97 0.663 1.883 1.403 2.738 0.742 0.85 1.61 1.597 2.602 2.243v0c1.113 0.724 2.345 1.264 3.697 1.62 1.352 0.357 2.626 0.413 3.822 0.169 1.205-0.246 2.147-0.89 2.825-1.931v0c0.645-0.992 0.867-1.968 0.663-2.927-0.201-0.95-0.679-1.858-1.435-2.724-0.753-0.857-1.615-1.601-2.585-2.232v0c-1.135-0.738-2.374-1.275-3.716-1.61-1.348-0.339-2.619-0.393-3.814-0.163-1.193 0.238-2.128 0.878-2.806 1.92z" fill="#000000" data-fill-palette-color="primary"></path><path d="M53.694 49.372v0c1.182 1.286 2.407 2.148 3.677 2.584 1.26 0.437 2.468 0.505 3.623 0.203 1.16-0.297 2.179-0.861 3.058-1.693v0c0.556-0.526 0.967-1.1 1.234-1.722 0.267-0.622 0.431-1.205 0.492-1.749 0.066-0.549 0.093-0.953 0.081-1.212v0c0.019-0.018 0.098-0.025 0.237-0.022 0.139 0.004 0.266 0.067 0.383 0.191v0c0.153 0.161 0.267 0.401 0.342 0.717v0c0.089 0.465 0.128 1.081 0.116 1.85-0.012 0.768-0.168 1.587-0.47 2.457-0.306 0.875-0.846 1.679-1.62 2.413v0c-1.168 1.106-2.467 1.809-3.895 2.107-1.424 0.304-2.84 0.226-4.248-0.234-1.403-0.455-2.658-1.266-3.764-2.434v0c-0.953-1.007-1.661-2.116-2.123-3.327-0.467-1.206-0.714-2.409-0.741-3.607-0.027-1.199 0.133-2.314 0.48-3.346 0.347-1.031 0.849-1.857 1.504-2.478v0c0.898-0.85 1.785-1.397 2.661-1.642 0.876-0.244 1.699-0.303 2.468-0.175 0.764 0.132 1.427 0.36 1.987 0.686 0.56 0.325 0.984 0.64 1.272 0.943v0c0.409 0.432 0.678 0.821 0.808 1.167 0.13 0.337 0.061 0.654-0.207 0.952v0c-0.167 0.194-0.517 0.553-1.049 1.075-0.532 0.522-1.136 1.126-1.812 1.81-0.68 0.68-1.348 1.349-2.005 2.007-0.652 0.662-1.211 1.223-1.676 1.682-0.461 0.455-0.732 0.72-0.813 0.797zM52.805 48.119v0l4.88-4.62c0.185-0.175 0.295-0.378 0.328-0.609 0.034-0.23-0.063-0.49-0.291-0.778v0c-0.21-0.26-0.61-0.539-1.198-0.838-0.593-0.294-1.244-0.457-1.951-0.49-0.712-0.029-1.374 0.247-1.986 0.827v0c-0.636 0.603-0.988 1.278-1.055 2.025-0.076 0.747-0.01 1.464 0.199 2.15 0.199 0.685 0.422 1.249 0.668 1.691 0.247 0.451 0.382 0.665 0.406 0.642z" fill="#000000" data-fill-palette-color="primary"></path><path d="M70.217 20.04l2.829 4.618 4.551-2.787c0.117-0.072 0.258 0.026 0.421 0.294v0c0.222 0.363 0.268 0.814 0.139 1.353v0l-4.225 2.587 5.656 9.236c1.182 1.93 2.554 2.416 4.116 1.46v0c0.53-0.324 0.946-0.729 1.247-1.212 0.302-0.484 0.482-0.809 0.542-0.976v0c0.086-0.022 0.167 0.028 0.242 0.151v0c0.161 0.262 0.222 0.47 0.185 0.622v0c-0.048 0.298-0.152 0.71-0.312 1.238-0.155 0.524-0.401 1.055-0.739 1.592-0.333 0.534-0.786 0.976-1.361 1.328v0c-0.602 0.369-1.255 0.619-1.956 0.75-0.693 0.133-1.392 0.032-2.096-0.304-0.701-0.33-1.36-1-1.979-2.01v0l-6.256-10.215-2.049 1.256c-0.05 0.031-0.112 0.011-0.186-0.059-0.079-0.067-0.134-0.125-0.165-0.175v0c-0.031-0.05-0.028-0.209 0.008-0.477 0.036-0.267 0.08-0.532 0.134-0.795 0.05-0.269 0.075-0.403 0.075-0.403v0l1.297-0.794-1.347-2.2c0.085-0.412 0.181-0.893 0.289-1.443 0.112-0.544 0.209-1.048 0.293-1.514 0.078-0.462 0.119-0.713 0.124-0.755v0c0.042-0.156 0.128-0.274 0.256-0.352 0.134-0.082 0.223-0.087 0.267-0.014z" fill="#000000" data-fill-palette-color="primary"></path><path d="M100.285 11.928v0c0.502-0.188 1.018-0.254 1.548-0.201 0.538 0.057 0.958 0.211 1.261 0.461v0c0.094 0.084 0.188 0.213 0.281 0.388 0.095 0.181 0.182 0.375 0.26 0.583v0c0.268 0.717 0.294 1.293 0.08 1.73-0.212 0.442-0.422 0.702-0.631 0.779v0c-0.263 0.098-0.549 0.1-0.856 0.006-0.308-0.095-0.594-0.169-0.859-0.224v0c-0.232-0.06-0.464-0.103-0.697-0.128-0.23-0.019-0.532 0.042-0.906 0.182v0c-0.551 0.206-0.973 0.628-1.265 1.268-0.288 0.631-0.475 1.28-0.561 1.947-0.08 0.665-0.066 1.142 0.041 1.43v0l2.233 5.983c0.217 0.582 0.426 1.122 0.626 1.62 0.2 0.498 0.411 0.887 0.634 1.167v0c0.105 0.114 0.414 0.135 0.924 0.063 0.517-0.074 1.047-0.188 1.59-0.342 0.547-0.162 0.9-0.273 1.059-0.332v0c0.119 0.074 0.234 0.244 0.347 0.509 0.111 0.259 0.133 0.46 0.068 0.603v0c-0.817 0.242-1.643 0.498-2.478 0.767-0.831 0.261-1.629 0.535-2.395 0.821v0c-0.741 0.277-1.447 0.565-2.117 0.864-0.679 0.295-1.403 0.618-2.173 0.968v0c-0.143-0.065-0.258-0.232-0.344-0.5-0.088-0.274-0.112-0.478-0.071-0.613v0c0.159-0.059 0.422-0.178 0.788-0.357 0.37-0.187 0.707-0.397 1.011-0.628 0.304-0.232 0.443-0.42 0.418-0.565v0c-0.009-0.36-0.101-0.793-0.276-1.3-0.175-0.507-0.372-1.052-0.588-1.634v0l-2.693-7.214c-0.098-0.263-0.233-0.604-0.403-1.023-0.17-0.418-0.355-0.726-0.554-0.924v0c-0.163-0.212-0.448-0.293-0.856-0.246-0.402 0.045-0.792 0.132-1.171 0.259-0.372 0.125-0.61 0.207-0.714 0.246v0c-0.051-0.044-0.138-0.193-0.261-0.447-0.123-0.254-0.164-0.448-0.123-0.583v0c0.955-0.51 1.858-1.074 2.709-1.691 0.851-0.618 1.581-1.281 2.189-1.99v0c0.11-0.041 0.241 0.001 0.392 0.125 0.151 0.125 0.246 0.24 0.286 0.344v0c0.03 0.08 0.115 0.393 0.257 0.941 0.148 0.545 0.302 1.099 0.462 1.66 0.164 0.553 0.276 0.909 0.336 1.068v0c0.03 0.08 0.063 0.113 0.1 0.099 0.043-0.016 0.072-0.041 0.087-0.074v0c0.055-0.656 0.207-1.4 0.455-2.233 0.25-0.826 0.592-1.586 1.024-2.277 0.435-0.686 0.944-1.138 1.526-1.355z" fill="#000000" data-fill-palette-color="primary"></path><path d="M119.026 8.006v0c0.785-0.101 1.572-0.233 2.363-0.394 0.79-0.161 1.365-0.279 1.725-0.352v0c0.073 0.103 0.115 0.325 0.126 0.667 0.018 0.341-0.029 0.518-0.139 0.532v0c-0.084 0.011-0.293 0.051-0.627 0.121-0.334 0.07-0.64 0.175-0.919 0.316-0.279 0.135-0.405 0.313-0.376 0.534v0c0.008 0.058 0.028 0.112 0.06 0.16v0l5.801 10.517c0 0 0.072-0.313 0.215-0.938 0.149-0.633 0.344-1.443 0.586-2.43 0.243-0.981 0.501-2.043 0.775-3.186 0.28-1.151 0.557-2.225 0.83-3.223v0c0.078-0.267 0.114-0.522 0.109-0.766 0.001-0.244-0.007-0.434-0.024-0.571v0c-0.054-0.422-0.315-0.724-0.781-0.908-0.465-0.177-1.047-0.221-1.747-0.13v0c-0.11 0.014-0.187-0.147-0.231-0.485-0.044-0.337-0.017-0.568 0.078-0.692v0c0.308-0.013 0.797-0.034 1.466-0.061 0.663-0.026 1.416-0.094 2.259-0.203v0c0.778-0.101 1.436-0.215 1.974-0.344 0.544-0.13 1.022-0.234 1.433-0.314v0c0.099 0.099 0.15 0.32 0.155 0.662-0.002 0.343-0.045 0.52-0.129 0.531v0c-0.11 0.014-0.335 0.086-0.675 0.216-0.339 0.13-0.685 0.316-1.035 0.559-0.351 0.243-0.586 0.57-0.704 0.982v0c-0.428 1.539-0.812 2.927-1.154 4.165-0.335 1.237-0.661 2.44-0.978 3.608-0.318 1.162-0.647 2.369-0.986 3.619-0.332 1.256-0.7 2.649-1.102 4.179v0c-0.343 1.324-0.67 2.645-0.981 3.965-0.31 1.326-0.761 2.581-1.353 3.765v0c-0.357 0.758-0.823 1.386-1.399 1.883-0.575 0.503-1.196 0.798-1.864 0.883v0c-0.396 0.051-0.802-0.008-1.22-0.178-0.419-0.177-0.675-0.628-0.769-1.355v0c-0.033-0.253-0.015-0.496 0.054-0.729 0.068-0.24 0.15-0.422 0.246-0.546v0c0.642-0.083 1.205-0.192 1.689-0.327 0.477-0.134 0.924-0.4 1.341-0.797 0.424-0.391 0.868-0.989 1.331-1.794v0c0.181-0.333 0.375-0.82 0.583-1.46 0.202-0.633 0.383-1.246 0.544-1.841 0.168-0.589 0.256-0.956 0.263-1.103v0c-1.006-1.862-1.955-3.595-2.849-5.201-0.887-1.607-1.78-3.183-2.678-4.728-0.899-1.546-1.866-3.135-2.902-4.769v0c-0.249-0.396-0.631-0.594-1.145-0.594-0.509-0.007-0.889 0.006-1.142 0.039v0c-0.058 0.008-0.088 0.011-0.088 0.012v0c-0.026 0.003-0.063-0.183-0.111-0.56-0.049-0.383-0.063-0.589-0.041-0.618v0c0.399-0.025 0.979-0.057 1.739-0.096 0.766-0.04 1.568-0.114 2.404-0.222z" fill="#000000" data-fill-palette-color="primary"></path><path d="M181.473 11.877v0c1.436 0.426 2.429 1.044 2.98 1.856 0.557 0.813 0.779 1.882 0.667 3.205-0.111 1.318-0.452 2.939-1.023 4.865v0l-1.296 4.373c-0.177 0.596-0.335 1.152-0.475 1.671-0.14 0.518-0.205 0.956-0.195 1.313v0c0.016 0.155 0.177 0.336 0.484 0.542 0.307 0.207 0.652 0.391 1.034 0.552 0.378 0.153 0.648 0.253 0.811 0.302v0c0.05 0.131 0.04 0.336-0.029 0.616-0.067 0.273-0.17 0.448-0.309 0.522v0c-0.792-0.296-1.496-0.556-2.112-0.779-0.608-0.228-1.304-0.458-2.087-0.691v0c-0.759-0.225-1.449-0.406-2.07-0.542-0.619-0.143-1.342-0.306-2.168-0.489v0c-0.081-0.14-0.076-0.343 0.017-0.609 0.101-0.27 0.207-0.447 0.321-0.529v0c0.157 0.046 0.432 0.108 0.825 0.184 0.389 0.068 0.775 0.1 1.158 0.097 0.383-0.003 0.61-0.068 0.683-0.196v0c0.203-0.294 0.387-0.697 0.552-1.208 0.165-0.51 0.336-1.064 0.512-1.659v0l1.177-3.969c0.489-1.649 0.765-2.972 0.829-3.97 0.057-0.999-0.136-1.786-0.579-2.362-0.45-0.577-1.189-1.018-2.217-1.322v0c-0.489-0.145-1.069-0.146-1.739-0.004-0.676 0.141-1.283 0.322-1.819 0.546-0.537 0.223-0.825 0.4-0.864 0.532v0l-2.453 8.277c-0.177 0.596-0.335 1.152-0.475 1.67-0.14 0.518-0.205 0.956-0.195 1.313v0c0.016 0.155 0.177 0.336 0.484 0.543 0.307 0.207 0.652 0.391 1.033 0.552 0.378 0.153 0.648 0.253 0.811 0.302v0c0.05 0.131 0.04 0.336-0.029 0.615-0.067 0.273-0.17 0.448-0.308 0.523v0c-0.792-0.296-1.496-0.556-2.112-0.78-0.608-0.228-1.304-0.458-2.087-0.69v0c-0.759-0.225-1.449-0.406-2.07-0.542-0.619-0.143-1.342-0.306-2.168-0.489v0c-0.081-0.14-0.073-0.342 0.026-0.607 0.094-0.272 0.198-0.45 0.311-0.531v0c0.157 0.046 0.432 0.108 0.826 0.183 0.389 0.068 0.775 0.1 1.158 0.098 0.383-0.003 0.61-0.068 0.683-0.197v0c0.203-0.294 0.387-0.697 0.552-1.208 0.165-0.51 0.336-1.064 0.512-1.659v0l5.194-17.523c0.08-0.27 0.178-0.623 0.294-1.059 0.118-0.443 0.158-0.799 0.122-1.068v0c-0.017-0.333-0.252-0.61-0.704-0.834-0.446-0.221-0.942-0.412-1.488-0.573v0c-0.025-0.007 0.006-0.182 0.094-0.525 0.088-0.342 0.176-0.514 0.266-0.515v0c1.029 0.189 2.058 0.283 3.088 0.281 1.032-0.008 2.024-0.075 2.976-0.202v0c0.107 0.032 0.185 0.137 0.234 0.315 0.051 0.172 0.057 0.327 0.016 0.465v0c0 0-0.16 0.276-0.481 0.829-0.327 0.551-0.655 1.382-0.984 2.492v0l-2.657 8.963c-0.017 0.056 0.016 0.097 0.097 0.121v0c0.025 0.007 0.074-0.009 0.147-0.048v0c0.357-0.215 0.908-0.464 1.654-0.748 0.744-0.277 1.537-0.489 2.378-0.635 0.837-0.154 1.566-0.14 2.187 0.044z" fill="#000000" data-fill-palette-color="primary"></path><path d="M209.039 24.176v0c0.687 0.393 1.201 0.982 1.543 1.766 0.351 0.782 0.5 1.647 0.446 2.596-0.051 0.943-0.343 1.88-0.876 2.811v0l-4.228 7.38c-0.267 0.465-0.411 0.914-0.433 1.346-0.018 0.427 0.168 0.752 0.56 0.977v0c0.34 0.195 0.652 0.276 0.935 0.242 0.277-0.037 0.448-0.052 0.513-0.046v0c0.051 0.029 0.067 0.087 0.047 0.174-0.02 0.087-0.042 0.153-0.068 0.198v0c-0.156 0.272-0.349 0.471-0.579 0.596v0c-0.219 0.04-0.557 0.077-1.013 0.109-0.458 0.024-0.914 0.023-1.366-0.002-0.455-0.035-0.816-0.128-1.083-0.282v0c-0.516-0.296-0.828-0.817-0.935-1.564-0.11-0.742-0.073-1.418 0.111-2.029v0c-0.152 0.041-0.483 0.093-0.993 0.155-0.508 0.071-1.076 0.115-1.704 0.132-0.625 0.011-1.224-0.008-1.798-0.058-0.574-0.05-1.02-0.166-1.338-0.349v0c-1.175-0.673-1.936-1.641-2.283-2.902-0.356-1.259-0.204-2.465 0.456-3.617v0c0.419-0.732 0.985-1.245 1.695-1.539 0.705-0.297 1.296-0.407 1.772-0.33v0c0.826 0.149 1.739 0.326 2.739 0.529 1.008 0.201 1.957 0.379 2.848 0.535 0.888 0.147 1.545 0.244 1.969 0.292v0c0.241 0.04 0.418 0.021 0.531-0.057 0.107-0.082 0.253-0.284 0.439-0.608v0l0.546-0.954c0.309-0.539 0.48-1.146 0.512-1.821 0.03-0.684-0.085-1.338-0.345-1.961-0.264-0.618-0.688-1.095-1.273-1.431v0c-0.613-0.351-1.179-0.416-1.698-0.193-0.519 0.222-1.042 0.654-1.568 1.296v0c-0.881 1.025-1.776 1.278-2.684 0.757v0c-0.392-0.224-0.598-0.554-0.62-0.989-0.028-0.438 0.064-0.842 0.275-1.21v0c0.042-0.074 0.149-0.201 0.32-0.382 0.166-0.184 0.313-0.303 0.442-0.357v0c0.564-0.129 1.323-0.23 2.276-0.302 0.953-0.072 1.963-0.032 3.03 0.12 1.063 0.157 2.023 0.481 2.88 0.972zM199.114 37.076v0c0.414 0.237 0.922 0.397 1.524 0.478 0.599 0.087 1.138 0.113 1.617 0.079 0.474-0.038 0.746-0.119 0.818-0.244v0l2.8-4.886c-0.55-0.119-1.243-0.271-2.079-0.456-0.836-0.185-1.46-0.313-1.872-0.383v0c-0.781-0.123-1.512-0.071-2.193 0.157-0.681 0.228-1.216 0.682-1.607 1.363v0c-0.38 0.664-0.481 1.379-0.302 2.145 0.176 0.772 0.607 1.354 1.294 1.747z" fill="#000000" data-fill-palette-color="primary"></path><path d="M227.602 38.161v0c0.577 0.542 1.098 0.99 1.562 1.346 0.46 0.351 0.997 0.797 1.61 1.337v0c-0.033 0.121-0.176 0.297-0.427 0.527-0.257 0.226-0.426 0.3-0.507 0.225v0c-0.062-0.058-0.226-0.194-0.492-0.408-0.266-0.214-0.542-0.383-0.828-0.509-0.282-0.13-0.499-0.114-0.65 0.048v0c-0.04 0.043-0.069 0.092-0.086 0.149v0l-4.346 11.248c0 0 0.287-0.143 0.861-0.43 0.583-0.287 1.338-0.646 2.263-1.077 0.921-0.427 1.913-0.895 2.975-1.405 1.067-0.515 2.07-0.986 3.01-1.413v0c0.256-0.11 0.478-0.242 0.668-0.396 0.185-0.158 0.324-0.288 0.418-0.388v0c0.291-0.31 0.355-0.707 0.191-1.193-0.168-0.481-0.509-0.963-1.024-1.446v0c-0.081-0.076-0.005-0.238 0.228-0.486 0.233-0.248 0.428-0.374 0.585-0.379v0c0.454 0.462 0.794 0.84 1.021 1.134 0.231 0.298 0.655 0.736 1.27 1.313v0c0.577 0.542 1.059 0.955 1.448 1.239 0.388 0.284 0.892 0.698 1.51 1.243v0c-0.014 0.139-0.154 0.317-0.421 0.534-0.261 0.221-0.423 0.302-0.485 0.244v0c-0.086-0.081-0.287-0.211-0.602-0.39-0.311-0.175-0.669-0.319-1.075-0.432-0.401-0.108-0.798-0.077-1.191 0.093v0c-1.456 0.652-2.77 1.239-3.942 1.762-1.168 0.527-2.306 1.037-3.416 1.53-1.1 0.493-2.243 1.003-3.429 1.53-1.196 0.528-2.512 1.122-3.949 1.783v0c-0.155 0.088-0.379 0.102-0.671 0.041-0.289-0.065-0.486-0.147-0.591-0.245v0c-0.143-0.134-0.196-0.26-0.158-0.377v0c1.213-3.231 2.343-6.135 3.392-8.712 1.043-2.582 1.938-5.111 2.684-7.587v0c0.143-0.449 0.054-0.869-0.269-1.261-0.323-0.402-0.577-0.69-0.763-0.865v0c-0.038-0.036-0.057-0.054-0.057-0.053v0c0.052-0.103 0.152-0.252 0.298-0.447 0.147-0.194 0.318-0.334 0.515-0.419v0c0.597 0.597 1.071 1.1 1.421 1.51 0.351 0.41 0.833 0.904 1.449 1.482z" fill="#000000" data-fill-palette-color="primary"></path><path d="M242.38 64.875v0c-1.451 0.972-2.489 2.052-3.114 3.24-0.624 1.179-0.874 2.363-0.753 3.551 0.117 1.192 0.519 2.285 1.208 3.28v0c0.435 0.629 0.94 1.123 1.514 1.481 0.574 0.358 1.125 0.609 1.654 0.753 0.532 0.149 0.928 0.237 1.186 0.265v0c0.015 0.022 0.01 0.101-0.015 0.237-0.025 0.136-0.107 0.253-0.247 0.35v0c-0.183 0.127-0.436 0.203-0.761 0.228v0c-0.473 0.017-1.088-0.038-1.845-0.167-0.757-0.128-1.543-0.408-2.358-0.838-0.818-0.436-1.531-1.092-2.137-1.969v0c-0.915-1.323-1.412-2.713-1.49-4.17-0.083-1.454 0.209-2.841 0.878-4.163 0.663-1.318 1.656-2.434 2.979-3.349v0c1.14-0.789 2.344-1.32 3.611-1.592 1.263-0.278 2.49-0.339 3.678-0.183 1.189 0.155 2.267 0.483 3.234 0.983 0.967 0.5 1.707 1.122 2.22 1.864v0c0.703 1.016 1.109 1.976 1.217 2.88 0.108 0.903 0.041 1.726-0.202 2.466-0.247 0.735-0.573 1.355-0.98 1.859-0.407 0.504-0.782 0.875-1.127 1.114v0c-0.489 0.339-0.915 0.546-1.276 0.621-0.352 0.077-0.656-0.039-0.91-0.349v0c-0.167-0.195-0.467-0.595-0.902-1.201-0.435-0.606-0.939-1.295-1.513-2.067-0.569-0.776-1.128-1.538-1.678-2.287-0.555-0.745-1.024-1.383-1.407-1.913-0.379-0.525-0.6-0.833-0.664-0.924zM243.753 64.187v0l3.824 5.526c0.145 0.21 0.329 0.349 0.551 0.418 0.223 0.069 0.494 0.012 0.814-0.169v0c0.289-0.168 0.626-0.521 1.01-1.057 0.381-0.542 0.641-1.159 0.782-1.854 0.137-0.699-0.035-1.395-0.515-2.089v0c-0.499-0.721-1.112-1.171-1.841-1.35-0.727-0.189-1.445-0.233-2.155-0.132-0.708 0.092-1.299 0.227-1.773 0.404-0.483 0.175-0.715 0.276-0.697 0.303z" fill="#000000" data-fill-palette-color="primary"></path><path d="M266.374 94.354v0c0.529 1.401 0.636 2.567 0.323 3.496-0.311 0.935-1.028 1.758-2.152 2.468-1.117 0.708-2.615 1.416-4.493 2.125v0l-4.269 1.61c-0.581 0.219-1.121 0.43-1.617 0.631-0.497 0.202-0.885 0.414-1.165 0.638v0c-0.114 0.106-0.16 0.344-0.139 0.714 0.021 0.37 0.079 0.746 0.174 1.129 0.102 0.381 0.183 0.651 0.243 0.81v0c-0.074 0.119-0.243 0.235-0.508 0.349-0.256 0.118-0.457 0.141-0.603 0.07v0c-0.243-0.81-0.458-1.519-0.645-2.126-0.181-0.61-0.416-1.297-0.704-2.062v0c-0.279-0.74-0.555-1.405-0.826-1.995-0.268-0.598-0.578-1.281-0.931-2.05v0c0.065-0.143 0.231-0.258 0.499-0.346 0.274-0.089 0.478-0.114 0.612-0.073v0c0.06 0.159 0.18 0.421 0.36 0.787 0.188 0.369 0.399 0.706 0.632 1.009 0.233 0.303 0.422 0.442 0.566 0.416v0c0.36-0.01 0.793-0.103 1.299-0.281 0.506-0.177 1.05-0.375 1.632-0.594v0l3.873-1.461c1.609-0.607 2.831-1.187 3.664-1.739 0.831-0.558 1.34-1.191 1.528-1.897 0.19-0.701 0.096-1.553-0.283-2.557v0c-0.18-0.477-0.53-0.943-1.051-1.396-0.518-0.448-1.028-0.818-1.53-1.111-0.502-0.293-0.817-0.415-0.946-0.367v0l-8.077 3.047c-0.581 0.219-1.121 0.43-1.618 0.631-0.497 0.202-0.885 0.414-1.164 0.639v0c-0.114 0.106-0.16 0.344-0.14 0.713 0.021 0.37 0.079 0.746 0.174 1.129 0.102 0.381 0.183 0.651 0.243 0.811v0c-0.074 0.119-0.243 0.235-0.508 0.348-0.256 0.118-0.457 0.141-0.603 0.07v0c-0.243-0.81-0.458-1.519-0.644-2.126-0.181-0.61-0.416-1.297-0.705-2.062v0c-0.279-0.74-0.555-1.405-0.826-1.995-0.268-0.598-0.578-1.281-0.93-2.05v0c0.065-0.143 0.231-0.258 0.499-0.346 0.274-0.089 0.478-0.114 0.611-0.073v0c0.06 0.159 0.18 0.421 0.36 0.787 0.188 0.369 0.399 0.706 0.632 1.009 0.233 0.303 0.422 0.442 0.566 0.416v0c0.36-0.01 0.793-0.103 1.299-0.281 0.506-0.177 1.05-0.375 1.632-0.594v0l7.04-2.656c0.269-0.102 0.637-0.247 1.104-0.437 0.473-0.192 0.808-0.389 1.005-0.589v0c0.211-0.163 0.292-0.449 0.243-0.857-0.047-0.402-0.134-0.792-0.263-1.169-0.126-0.372-0.209-0.61-0.248-0.714v0c0.044-0.051 0.192-0.139 0.446-0.262 0.254-0.124 0.448-0.165 0.582-0.126v0c0.513 0.953 1.08 1.854 1.701 2.703 0.621 0.849 1.287 1.577 1.997 2.183v0c0.042 0.11 0 0.241-0.124 0.393-0.124 0.152-0.239 0.247-0.343 0.286v0c-0.08 0.03-0.293 0.086-0.639 0.168-0.344 0.088-0.681 0.169-1.009 0.244-0.332 0.083-0.55 0.145-0.654 0.184v0c-0.11 0.042-0.155 0.09-0.134 0.145v0c0.009 0.024 0.052 0.054 0.127 0.088v0c0.387 0.155 0.919 0.443 1.596 0.866 0.671 0.425 1.317 0.926 1.94 1.502 0.631 0.58 1.061 1.173 1.289 1.778z" fill="#000000" data-fill-palette-color="primary"></path><path d="M6.817 138.818c0-6.054 4.908-10.962 10.962-10.962 6.054 0 10.962 4.908 10.961 10.962 0 6.054-4.908 10.962-10.961 10.961-6.054 0-10.962-4.908-10.962-10.961z" fill="#000000" data-fill-palette-color="primary"></path><path d="M254.041 138.818c0-6.054 4.908-10.962 10.962-10.962 6.054 0 10.962 4.908 10.961 10.962 0 6.054-4.908 10.962-10.961 10.961-6.054 0-10.962-4.908-10.962-10.961z" fill="#000000" data-fill-palette-color="primary"></path></g><g id="text-1"><path d="M35.005 179.651v0c0.438 1.253 0.555 2.439 0.351 3.557-0.199 1.116-0.625 2.124-1.28 3.025-0.655 0.901-1.41 1.664-2.265 2.289-0.862 0.627-1.737 1.096-2.626 1.408v0c-1.309 0.458-2.65 0.615-4.023 0.472-1.38-0.141-2.681-0.514-3.904-1.118-1.229-0.602-2.303-1.373-3.221-2.313-0.926-0.944-1.588-1.984-1.985-3.12v0c-0.186-0.531-0.322-1.079-0.409-1.645-0.091-0.557-0.136-1.023-0.136-1.397v0c0 0-0.059-0.011-0.177-0.032-0.118-0.021-0.261-0.002-0.428 0.056v0l-3.926 1.374c-0.611 0.214-1.186 0.422-1.725 0.625-0.539 0.202-0.956 0.418-1.25 0.645v0c-0.116 0.103-0.163 0.345-0.141 0.725 0.024 0.386 0.085 0.788 0.182 1.204 0.106 0.42 0.187 0.714 0.246 0.881v0c-0.083 0.119-0.271 0.237-0.563 0.352-0.284 0.12-0.5 0.144-0.65 0.072v0c-0.238-0.859-0.447-1.614-0.627-2.265-0.181-0.657-0.414-1.39-0.696-2.199v0c-0.272-0.778-0.539-1.471-0.8-2.079-0.264-0.615-0.569-1.329-0.916-2.143v0c0.072-0.15 0.256-0.27 0.55-0.358 0.303-0.085 0.524-0.107 0.663-0.066v0c0.058 0.167 0.174 0.438 0.347 0.814 0.179 0.374 0.382 0.726 0.608 1.055 0.226 0.33 0.412 0.483 0.556 0.46v0c0.372-0.006 0.832-0.097 1.38-0.275 0.55-0.172 1.13-0.364 1.741-0.578v0l16.659-5.828c0.278-0.097 0.636-0.233 1.073-0.407 0.44-0.168 0.764-0.351 0.973-0.548v0c0.225-0.169 0.318-0.468 0.278-0.898-0.037-0.423-0.118-0.832-0.242-1.225-0.124-0.393-0.205-0.645-0.244-0.756v0c0.047-0.044 0.204-0.13 0.471-0.259 0.269-0.122 0.473-0.162 0.613-0.12v0c0.511 1.006 1.084 1.97 1.718 2.891 0.632 0.915 1.312 1.699 2.039 2.352v0c0.039 0.111-0.01 0.239-0.146 0.384-0.139 0.139-0.263 0.227-0.375 0.266v0c-0.151 0.025-0.442 0.064-0.873 0.119-0.429 0.06-0.727 0.119-0.894 0.177v0c-0.111 0.039-0.157 0.086-0.137 0.142v0c0.009 0.025 0.05 0.055 0.125 0.091v0c0.419 0.228 0.913 0.571 1.483 1.03 0.563 0.461 1.091 0.969 1.583 1.525 0.494 0.561 0.834 1.108 1.02 1.638zM31.976 178.747v0c-0.194-0.556-0.477-1.066-0.848-1.533-0.365-0.468-0.734-0.831-1.108-1.088-0.368-0.259-0.651-0.354-0.848-0.285v0l-9.76 3.415c-0.698 0.244-1.194 0.657-1.49 1.238-0.293 0.588-0.44 1.218-0.44 1.89 0 0.672 0.083 1.246 0.249 1.721v0c0.4 1.142 1.08 1.988 2.042 2.539 0.956 0.553 2.035 0.854 3.237 0.904 1.209 0.048 2.353-0.117 3.433-0.494v0c2.42-0.847 4.083-2.056 4.988-3.627 0.908-1.565 1.089-3.125 0.545-4.68z" fill="#000000" data-fill-palette-color="secondary"></path><path d="M47.308 203.377v0c1.051 1.603 1.606 3.201 1.667 4.796 0.064 1.6-0.289 3.102-1.057 4.506-0.774 1.407-1.914 2.604-3.418 3.59v0c-1.548 1.015-3.164 1.598-4.849 1.748-1.685 0.15-3.271-0.116-4.758-0.798-1.484-0.677-2.703-1.743-3.657-3.198v0c-1.036-1.581-1.586-3.187-1.647-4.821-0.067-1.629 0.292-3.151 1.077-4.565 0.785-1.414 1.927-2.613 3.426-3.596v0c1.553-1.018 3.17-1.594 4.851-1.726 1.675-0.129 3.251 0.152 4.728 0.842 1.471 0.693 2.684 1.767 3.637 3.222zM45.825 203.763v0c-0.663-1.012-1.5-1.625-2.508-1.84-1.007-0.224-2.076-0.16-3.207 0.191-1.122 0.352-2.2 0.868-3.233 1.545v0c-1.159 0.76-2.193 1.712-3.102 2.855-0.908 1.143-1.5 2.34-1.774 3.592-0.269 1.248-0.047 2.416 0.667 3.504v0c0.678 1.034 1.517 1.657 2.516 1.87 1.002 0.204 2.071 0.128 3.207-0.226 1.138-0.363 2.213-0.876 3.225-1.54v0c1.181-0.775 2.217-1.735 3.108-2.882 0.885-1.143 1.468-2.335 1.749-3.576 0.278-1.246 0.062-2.41-0.648-3.493z" fill="#000000" data-fill-palette-color="secondary"></path><path d="M55.741 226.549v0c-1.278 1.312-2.105 2.64-2.48 3.984-0.37 1.349-0.368 2.616 0.006 3.803 0.384 1.187 1.037 2.214 1.961 3.084v0c0.581 0.547 1.204 0.939 1.869 1.178 0.664 0.239 1.282 0.375 1.851 0.408 0.575 0.038 0.998 0.041 1.271 0.009v0c0.024 0.022 0.036 0.105 0.035 0.249 0.005 0.148-0.054 0.286-0.174 0.415v0c-0.161 0.172-0.407 0.304-0.738 0.397v0c-0.473 0.121-1.111 0.198-1.915 0.233-0.804 0.034-1.666-0.081-2.585-0.344-0.929-0.263-1.801-0.777-2.616-1.544v0c-1.225-1.151-2.038-2.464-2.439-3.936-0.401-1.464-0.405-2.944-0.012-4.442 0.394-1.488 1.166-2.844 2.318-4.068v0c0.99-1.053 2.101-1.858 3.334-2.414 1.237-0.561 2.478-0.893 3.724-0.996 1.246-0.103 2.417-0.003 3.514 0.301 1.092 0.3 1.981 0.772 2.667 1.417v0c0.943 0.887 1.57 1.782 1.88 2.684 0.31 0.893 0.421 1.743 0.335 2.551-0.095 0.808-0.296 1.513-0.601 2.114-0.301 0.606-0.601 1.069-0.901 1.388v0c-0.426 0.453-0.814 0.756-1.166 0.91-0.347 0.159-0.684 0.107-1.011-0.156v0c-0.209-0.16-0.605-0.502-1.191-1.025-0.576-0.524-1.237-1.119-1.984-1.785-0.751-0.662-1.491-1.317-2.219-1.965-0.732-0.644-1.351-1.194-1.855-1.651-0.5-0.452-0.792-0.718-0.878-0.799zM56.987 225.539v0l5.124 4.819c0.191 0.179 0.407 0.284 0.648 0.313 0.241 0.02 0.506-0.099 0.794-0.357v0c0.261-0.239 0.527-0.676 0.8-1.309 0.272-0.633 0.401-1.319 0.387-2.059-0.014-0.74-0.342-1.412-0.985-2.017v0c-0.667-0.627-1.392-0.954-2.174-0.981-0.783-0.027-1.524 0.084-2.225 0.332-0.7 0.248-1.275 0.516-1.724 0.802-0.449 0.287-0.664 0.439-0.645 0.457z" fill="#000000" data-fill-palette-color="secondary"></path><path d="M85.759 232.744l-2.946 4.833 4.758 2.9c0.123 0.075 0.099 0.252-0.071 0.531v0c-0.228 0.374-0.625 0.63-1.192 0.768v0l-4.414-2.691-5.893 9.667c-1.229 2.016-1.025 3.523 0.612 4.52v0c0.553 0.337 1.125 0.529 1.717 0.575 0.589 0.052 0.978 0.067 1.167 0.045v0c0.059 0.067 0.049 0.164-0.029 0.293v0c-0.167 0.274-0.331 0.43-0.493 0.469v0c-0.296 0.096-0.725 0.197-1.289 0.306-0.566 0.099-1.177 0.121-1.833 0.066-0.659-0.049-1.29-0.258-1.893-0.625v0c-0.631-0.385-1.173-0.872-1.625-1.462-0.452-0.59-0.69-1.286-0.714-2.09-0.026-0.812 0.283-1.746 0.926-2.801v0l6.515-10.689-2.152-1.312c-0.05-0.031-0.061-0.095-0.033-0.192 0.027-0.106 0.055-0.185 0.086-0.235v0c0.031-0.05 0.179-0.124 0.446-0.223 0.267-0.098 0.536-0.182 0.809-0.253 0.271-0.08 0.406-0.12 0.406-0.12v0l1.357 0.827 1.405-2.303c0.418-0.12 0.91-0.261 1.475-0.423 0.562-0.155 1.075-0.306 1.539-0.452 0.473-0.148 0.728-0.227 0.764-0.235v0c0.167-0.036 0.318-0.013 0.452 0.069 0.14 0.085 0.187 0.164 0.143 0.237z" fill="#000000" data-fill-palette-color="secondary"></path><path d="M107.05 248.315v0c0.527 0.197 0.98 0.498 1.358 0.905 0.385 0.409 0.611 0.814 0.677 1.216v0c0.014 0.131 0 0.3-0.042 0.507-0.046 0.199-0.111 0.409-0.193 0.63v0c-0.279 0.748-0.652 1.223-1.119 1.425-0.467 0.203-0.81 0.263-1.031 0.181v0c-0.276-0.103-0.504-0.296-0.684-0.58-0.172-0.288-0.343-0.54-0.513-0.757v0c-0.143-0.214-0.301-0.409-0.473-0.585-0.174-0.17-0.454-0.327-0.84-0.47v0c-0.576-0.215-1.195-0.174-1.858 0.123-0.665 0.303-1.259 0.689-1.782 1.157-0.517 0.47-0.832 0.855-0.944 1.156v0l-2.336 6.259c-0.226 0.607-0.432 1.176-0.616 1.707-0.182 0.525-0.28 0.974-0.293 1.346v0c0.003 0.162 0.231 0.39 0.687 0.686 0.461 0.298 0.96 0.571 1.495 0.82 0.538 0.243 0.889 0.395 1.055 0.456v0c0.039 0.14 0.015 0.351-0.069 0.634-0.091 0.28-0.213 0.458-0.367 0.533v0c-0.807-0.364-1.631-0.727-2.473-1.09-0.842-0.363-1.661-0.693-2.457-0.99v0c-0.778-0.29-1.534-0.548-2.267-0.773-0.733-0.225-1.523-0.464-2.371-0.717v0c-0.067-0.158-0.043-0.372 0.072-0.643 0.115-0.271 0.236-0.446 0.363-0.524v0c0.165 0.062 0.454 0.149 0.867 0.26 0.414 0.106 0.823 0.171 1.225 0.196 0.403 0.025 0.643-0.029 0.72-0.161v0c0.234-0.29 0.454-0.693 0.66-1.209 0.215-0.52 0.436-1.083 0.662-1.69v0l2.816-7.546c0.103-0.276 0.227-0.638 0.374-1.086 0.152-0.446 0.219-0.812 0.2-1.098v0c0.014-0.281-0.154-0.542-0.503-0.784-0.356-0.244-0.724-0.445-1.105-0.601-0.381-0.156-0.627-0.255-0.738-0.297v0c-0.004-0.064 0.03-0.24 0.102-0.527 0.078-0.285 0.178-0.468 0.299-0.548v0c1.1 0.25 2.201 0.424 3.303 0.52 1.096 0.095 2.127 0.071 3.095-0.07v0c0.11 0.041 0.184 0.163 0.22 0.365 0.03 0.2 0.025 0.355-0.017 0.465v0c-0.032 0.086-0.178 0.394-0.439 0.925-0.261 0.531-0.518 1.07-0.772 1.618-0.249 0.556-0.405 0.917-0.466 1.082v0c-0.03 0.08-0.026 0.126 0.01 0.14 0.043 0.016 0.084 0.017 0.124 0.005v0c0.493-0.479 1.119-0.961 1.88-1.446 0.769-0.488 1.559-0.856 2.37-1.105 0.816-0.24 1.527-0.247 2.134-0.02z" fill="#000000" data-fill-palette-color="secondary"></path><path d="M120.998 252.098v0c0.817 0.106 1.648 0.184 2.492 0.234 0.838 0.049 1.45 0.082 1.837 0.1v0c0.043 0.124 0.026 0.359-0.052 0.705-0.071 0.347-0.165 0.513-0.282 0.498v0c-0.091-0.012-0.313-0.024-0.668-0.037-0.354-0.019-0.69 0.003-1.007 0.067-0.318 0.064-0.493 0.213-0.523 0.446v0c-0.008 0.058-0.002 0.118 0.016 0.18v0l3.062 12.169c0 0 0.158-0.299 0.472-0.898 0.315-0.599 0.724-1.364 1.228-2.294 0.51-0.93 1.059-1.937 1.648-3.021 0.583-1.085 1.142-2.097 1.679-3.037v0c0.15-0.244 0.258-0.491 0.324-0.74 0.058-0.243 0.096-0.436 0.114-0.578v0c0.057-0.441-0.122-0.814-0.537-1.119-0.421-0.312-0.998-0.515-1.731-0.61v0c-0.117-0.015-0.152-0.198-0.107-0.548 0.045-0.35 0.134-0.576 0.266-0.678v0c0.32 0.074 0.817 0.185 1.49 0.332 0.68 0.148 1.461 0.278 2.343 0.393v0c0.817 0.106 1.515 0.167 2.093 0.182 0.578 0.016 1.087 0.035 1.526 0.06v0c0.076 0.129 0.068 0.365-0.023 0.709-0.091 0.344-0.178 0.511-0.263 0.5v0c-0.117-0.015-0.366-0.001-0.747 0.042-0.374 0.037-0.772 0.134-1.195 0.29-0.422 0.15-0.747 0.421-0.976 0.813v0c-0.839 1.434-1.594 2.731-2.265 3.891-0.671 1.159-1.322 2.285-1.952 3.377-0.63 1.099-1.282 2.234-1.955 3.407-0.674 1.179-1.417 2.487-2.23 3.925v0c-0.696 1.249-1.379 2.499-2.049 3.751-0.663 1.246-1.448 2.391-2.355 3.434v0c-0.562 0.672-1.202 1.183-1.92 1.531-0.712 0.356-1.419 0.489-2.119 0.398v0c-0.415-0.054-0.812-0.224-1.19-0.51-0.378-0.286-0.518-0.809-0.42-1.568v0c0.034-0.266 0.119-0.509 0.253-0.729 0.134-0.22 0.267-0.381 0.399-0.483v0c0.675 0.087 1.269 0.128 1.784 0.123 0.522-0.005 1.049-0.154 1.582-0.448 0.525-0.288 1.129-0.774 1.811-1.457v0c0.275-0.288 0.599-0.727 0.972-1.318 0.373-0.591 0.724-1.162 1.053-1.713 0.322-0.552 0.506-0.901 0.552-1.047v0c-0.52-2.145-1.015-4.148-1.487-6.009-0.477-1.862-0.962-3.693-1.454-5.491-0.491-1.805-1.044-3.67-1.659-5.596v0c-0.151-0.461-0.485-0.762-1.001-0.902-0.515-0.146-0.903-0.236-1.162-0.269v0c-0.058-0.008-0.088-0.011-0.087-0.011v0c-0.032-0.004-0.023-0.204 0.028-0.6 0.05-0.389 0.094-0.598 0.131-0.626v0c0.404 0.085 0.995 0.208 1.772 0.368 0.784 0.161 1.613 0.298 2.489 0.412z" fill="#000000" data-fill-palette-color="secondary"></path><path d="M175.91 247.829v0c1.5-0.44 2.724-0.461 3.672-0.063 0.942 0.399 1.738 1.211 2.391 2.437 0.651 1.22 1.27 2.834 1.858 4.843v0l1.344 4.585c0.182 0.621 0.358 1.2 0.529 1.736 0.169 0.53 0.359 0.948 0.572 1.253v0c0.105 0.126 0.35 0.194 0.734 0.204 0.385 0.01 0.79-0.024 1.218-0.101 0.419-0.082 0.713-0.148 0.883-0.197v0c0.115 0.089 0.223 0.272 0.324 0.549 0.095 0.279 0.104 0.494 0.026 0.646v0c-0.864 0.192-1.629 0.361-2.294 0.509-0.666 0.147-1.406 0.341-2.222 0.58v0c-0.797 0.234-1.506 0.465-2.128 0.695-0.621 0.23-1.35 0.498-2.187 0.804v0c-0.148-0.086-0.254-0.273-0.318-0.561-0.07-0.286-0.081-0.498-0.032-0.634v0c0.176-0.051 0.456-0.154 0.84-0.308 0.383-0.16 0.739-0.35 1.07-0.569 0.337-0.221 0.497-0.408 0.48-0.56v0c0.014-0.372-0.048-0.828-0.186-1.366-0.146-0.543-0.309-1.126-0.491-1.748v0l-1.219-4.161c-0.506-1.726-1.014-3.042-1.526-3.949-0.513-0.913-1.129-1.492-1.848-1.738-0.715-0.254-1.612-0.223-2.692 0.094v0c-0.508 0.149-1.019 0.476-1.532 0.981-0.513 0.505-0.942 1.005-1.288 1.501-0.343 0.503-0.495 0.823-0.454 0.962v0l2.538 8.661c0.182 0.621 0.358 1.2 0.529 1.736 0.175 0.528 0.369 0.945 0.581 1.251v0c0.099 0.128 0.34 0.197 0.725 0.206 0.385 0.01 0.79-0.024 1.218-0.101 0.419-0.082 0.713-0.148 0.883-0.197v0c0.121 0.087 0.229 0.27 0.324 0.549 0.095 0.279 0.104 0.494 0.026 0.646v0c-0.864 0.192-1.629 0.361-2.294 0.509-0.659 0.146-1.4 0.339-2.223 0.58v0c-0.791 0.232-1.5 0.463-2.127 0.695-0.621 0.23-1.347 0.497-2.177 0.801v0c-0.148-0.086-0.257-0.272-0.328-0.558-0.07-0.286-0.078-0.499-0.023-0.637v0c0.169-0.05 0.446-0.151 0.831-0.305 0.383-0.16 0.739-0.35 1.07-0.569 0.337-0.221 0.5-0.409 0.49-0.563v0c0.014-0.372-0.051-0.827-0.196-1.363-0.146-0.543-0.309-1.126-0.491-1.748v0l-5.372-18.329c-0.083-0.282-0.197-0.648-0.341-1.096-0.147-0.454-0.313-0.791-0.5-1.009v0c-0.205-0.281-0.567-0.389-1.087-0.326-0.522 0.057-1.065 0.169-1.63 0.335v0c-0.031 0.009-0.105-0.16-0.22-0.508-0.116-0.348-0.137-0.549-0.065-0.605v0c1.015-0.42 1.975-0.923 2.88-1.508 0.897-0.59 1.727-1.211 2.49-1.865v0c0.113-0.033 0.243 0.014 0.389 0.142 0.146 0.127 0.24 0.26 0.281 0.398v0c0 0 0.014 0.337 0.04 1.011 0.025 0.667 0.207 1.578 0.545 2.733v0l2.751 9.386c0.017 0.056 0.069 0.072 0.157 0.046v0c0.025-0.007 0.058-0.048 0.097-0.12v0c0.19-0.397 0.535-0.93 1.034-1.602 0.494-0.663 1.068-1.298 1.721-1.905 0.647-0.605 1.297-1.004 1.95-1.195z" fill="#000000" data-fill-palette-color="secondary"></path><path d="M199.54 237.489v0c0.716-0.407 1.521-0.56 2.414-0.459 0.887 0.105 1.744 0.434 2.57 0.988 0.817 0.551 1.502 1.313 2.055 2.285v0l4.393 7.727c0.278 0.489 0.605 0.852 0.981 1.09 0.373 0.247 0.768 0.252 1.183 0.016v0c0.358-0.204 0.596-0.44 0.713-0.711 0.117-0.27 0.195-0.431 0.234-0.482v0c0.051-0.029 0.109-0.013 0.173 0.048 0.074 0.063 0.125 0.121 0.155 0.172v0c0.158 0.279 0.23 0.557 0.216 0.836v0c-0.079 0.218-0.228 0.539-0.445 0.964-0.209 0.427-0.45 0.835-0.726 1.225-0.266 0.392-0.541 0.669-0.826 0.83v0c-0.534 0.304-1.168 0.307-1.902 0.01-0.725-0.295-1.312-0.687-1.763-1.176v0c-0.044 0.161-0.172 0.485-0.383 0.974-0.208 0.494-0.472 1.028-0.793 1.602-0.324 0.568-0.659 1.097-1.005 1.587-0.349 0.484-0.691 0.822-1.027 1.012v0c-1.228 0.698-2.502 0.873-3.82 0.525-1.322-0.354-2.326-1.134-3.012-2.339v0c-0.436-0.768-0.598-1.548-0.485-2.343 0.107-0.791 0.322-1.379 0.644-1.765v0c0.571-0.663 1.216-1.395 1.935-2.195 0.716-0.791 1.378-1.547 1.983-2.267 0.612-0.724 1.053-1.264 1.324-1.622v0c0.163-0.19 0.237-0.357 0.224-0.499-0.017-0.148-0.119-0.388-0.306-0.718v0l-0.572-1.006c-0.32-0.563-0.779-1.039-1.377-1.429-0.589-0.387-1.234-0.63-1.937-0.727-0.699-0.092-1.356 0.037-1.97 0.386v0c-0.637 0.362-0.992 0.835-1.066 1.419-0.08 0.587 0.029 1.289 0.327 2.105v0c0.452 1.338 0.206 2.275-0.737 2.811v0c-0.415 0.236-0.826 0.248-1.233 0.035-0.407-0.213-0.718-0.509-0.935-0.89v0c-0.045-0.08-0.104-0.242-0.175-0.487-0.072-0.245-0.1-0.44-0.084-0.584v0c0.183-0.578 0.494-1.315 0.932-2.212 0.438-0.896 1.011-1.782 1.717-2.657 0.706-0.875 1.508-1.568 2.406-2.079zM205.869 253.267v0c0.432-0.246 0.849-0.618 1.25-1.117 0.395-0.496 0.703-0.967 0.922-1.416 0.219-0.448 0.293-0.735 0.222-0.86v0l-2.909-5.117c-0.398 0.437-0.903 0.98-1.512 1.628-0.612 0.657-1.062 1.149-1.35 1.478v0c-0.52 0.634-0.86 1.32-1.019 2.057-0.16 0.738-0.036 1.465 0.371 2.182v0c0.391 0.688 0.981 1.157 1.771 1.408 0.786 0.245 1.538 0.164 2.254-0.243z" fill="#000000" data-fill-palette-color="secondary"></path><path d="M215.032 227.053v0c0.603-0.562 1.104-1.07 1.504-1.523 0.405-0.458 0.907-0.989 1.506-1.592v0c0.123 0.046 0.296 0.207 0.518 0.483 0.217 0.281 0.282 0.461 0.196 0.541v0c-0.062 0.058-0.211 0.219-0.447 0.484-0.24 0.26-0.44 0.535-0.598 0.826-0.153 0.286-0.15 0.515 0.01 0.688v0c0.04 0.043 0.092 0.075 0.157 0.095v0l11.419 5.315c0 0-0.13-0.312-0.391-0.937-0.26-0.625-0.581-1.434-0.963-2.429-0.382-0.994-0.805-2.062-1.269-3.202-0.46-1.145-0.88-2.224-1.261-3.238v0c-0.092-0.272-0.216-0.51-0.37-0.714-0.146-0.204-0.267-0.359-0.366-0.464v0c-0.303-0.325-0.712-0.418-1.226-0.278-0.518 0.135-1.048 0.454-1.588 0.957v0c-0.086 0.08-0.25-0.009-0.49-0.267-0.241-0.258-0.358-0.471-0.353-0.637v0c0.52-0.44 0.938-0.768 1.256-0.983 0.322-0.22 0.806-0.631 1.452-1.233v0c0.603-0.562 1.068-1.036 1.397-1.423 0.323-0.382 0.787-0.877 1.392-1.485v0c0.147 0.024 0.325 0.18 0.531 0.47 0.207 0.29 0.28 0.463 0.218 0.521v0c-0.086 0.08-0.234 0.281-0.444 0.602-0.21 0.312-0.385 0.676-0.524 1.092-0.139 0.407-0.131 0.824 0.025 1.251v0c0.57 1.561 1.088 2.97 1.553 4.226 0.465 1.256 0.915 2.478 1.35 3.663 0.444 1.186 0.899 2.417 1.363 3.692 0.469 1.28 0.998 2.691 1.587 4.234v0c0.077 0.169 0.076 0.403-0.004 0.701-0.085 0.302-0.18 0.503-0.285 0.601v0c-0.153 0.143-0.291 0.191-0.414 0.145v0c-3.289-1.494-6.239-2.875-8.851-4.141-2.616-1.272-5.192-2.38-7.727-3.325v0c-0.447-0.182-0.889-0.119-1.325 0.189-0.441 0.304-0.76 0.547-0.956 0.731v0c-0.043 0.04-0.065 0.06-0.065 0.06v0c-0.099-0.068-0.246-0.182-0.439-0.342-0.193-0.159-0.328-0.347-0.404-0.562v0c0.668-0.578 1.228-1.038 1.68-1.378 0.447-0.336 0.995-0.807 1.646-1.414z" fill="#000000" data-fill-palette-color="secondary"></path><path d="M239.771 211.827v0c1.482 1.076 2.915 1.703 4.299 1.881 1.388 0.172 2.642-0.012 3.763-0.553 1.119-0.55 2.042-1.345 2.769-2.386v0c0.457-0.654 0.756-1.327 0.896-2.018 0.141-0.692 0.186-1.322 0.138-1.891-0.045-0.574-0.103-0.994-0.174-1.259v0c0.019-0.027 0.099-0.05 0.241-0.071 0.146-0.026 0.291 0.012 0.436 0.114v0c0.193 0.135 0.359 0.359 0.499 0.672v0c0.188 0.451 0.356 1.071 0.506 1.862 0.149 0.791 0.16 1.66 0.032 2.608-0.126 0.957-0.51 1.894-1.151 2.81v0c-0.963 1.377-2.145 2.371-3.544 2.98-1.391 0.608-2.855 0.825-4.394 0.651-1.529-0.175-2.983-0.745-4.36-1.708v0c-1.185-0.828-2.141-1.812-2.868-2.951-0.733-1.143-1.24-2.324-1.522-3.542-0.281-1.218-0.351-2.392-0.207-3.521 0.139-1.124 0.479-2.071 1.018-2.843v0c0.742-1.061 1.537-1.81 2.385-2.247 0.839-0.435 1.664-0.668 2.476-0.698 0.813-0.022 1.54 0.075 2.179 0.29 0.643 0.21 1.144 0.441 1.503 0.692v0c0.509 0.356 0.865 0.697 1.069 1.023 0.207 0.32 0.204 0.661-0.009 1.023v0c-0.128 0.229-0.41 0.671-0.844 1.325-0.435 0.645-0.929 1.386-1.48 2.221-0.547 0.839-1.088 1.665-1.626 2.479-0.532 0.817-0.987 1.509-1.366 2.073-0.375 0.56-0.597 0.888-0.664 0.984zM238.592 210.74v0l4.031-5.765c0.15-0.214 0.222-0.443 0.217-0.686-0.015-0.242-0.171-0.486-0.469-0.735v0c-0.274-0.224-0.744-0.425-1.41-0.603-0.666-0.178-1.363-0.207-2.093-0.087-0.73 0.12-1.348 0.542-1.854 1.265v0c-0.525 0.75-0.744 1.515-0.658 2.294 0.086 0.778 0.302 1.496 0.649 2.153 0.346 0.657 0.694 1.187 1.042 1.591 0.348 0.403 0.53 0.594 0.545 0.573z" fill="#000000" data-fill-palette-color="secondary"></path><path d="M248.683 177.014v0c0.558-1.46 1.281-2.444 2.169-2.951 0.89-0.514 2.02-0.659 3.391-0.436 1.365 0.221 3.025 0.705 4.98 1.453v0l4.462 1.706c0.605 0.231 1.172 0.441 1.702 0.63 0.524 0.186 0.972 0.288 1.344 0.304v0c0.162-0.001 0.363-0.152 0.604-0.452 0.243-0.306 0.46-0.643 0.649-1.012 0.184-0.371 0.307-0.639 0.371-0.803v0c0.143-0.043 0.354-0.019 0.633 0.074 0.28 0.093 0.456 0.217 0.53 0.371v0c-0.37 0.804-0.696 1.509-0.977 2.115-0.279 0.601-0.571 1.301-0.877 2.102v0c-0.294 0.77-0.542 1.48-0.742 2.132-0.198 0.646-0.427 1.391-0.688 2.237v0c-0.158 0.066-0.372 0.04-0.642-0.078-0.27-0.117-0.444-0.24-0.521-0.368v0c0.063-0.165 0.152-0.453 0.267-0.864 0.109-0.413 0.178-0.821 0.206-1.223 0.026-0.396-0.026-0.637-0.155-0.721v0c-0.288-0.236-0.689-0.46-1.204-0.671-0.518-0.219-1.08-0.445-1.684-0.676v0l-4.05-1.549c-1.68-0.643-3.036-1.032-4.07-1.168-1.037-0.145-1.87-0.008-2.499 0.41-0.637 0.421-1.156 1.154-1.555 2.199v0c-0.189 0.495-0.238 1.099-0.148 1.813 0.091 0.714 0.23 1.359 0.416 1.934 0.192 0.578 0.355 0.892 0.49 0.944v0l8.43 3.224c0.605 0.231 1.172 0.441 1.702 0.63 0.524 0.186 0.972 0.288 1.344 0.304v0c0.162-0.001 0.364-0.155 0.607-0.461 0.241-0.3 0.456-0.634 0.646-1.003 0.184-0.371 0.307-0.639 0.37-0.803v0c0.143-0.043 0.354-0.019 0.633 0.074 0.28 0.093 0.456 0.217 0.531 0.371v0c-0.37 0.804-0.695 1.506-0.974 2.106-0.281 0.607-0.575 1.31-0.881 2.111v0c-0.294 0.77-0.541 1.477-0.738 2.122-0.2 0.652-0.431 1.4-0.691 2.246v0c-0.158 0.066-0.372 0.04-0.643-0.077-0.27-0.117-0.444-0.24-0.521-0.368v0c0.063-0.165 0.152-0.453 0.268-0.864 0.109-0.413 0.178-0.821 0.205-1.223 0.028-0.402-0.024-0.643-0.155-0.721v0c-0.288-0.236-0.689-0.46-1.203-0.671-0.518-0.219-1.08-0.445-1.685-0.676v0l-7.358-2.814c-0.275-0.105-0.663-0.243-1.165-0.414-0.499-0.177-0.892-0.257-1.179-0.241v0c-0.281-0.016-0.544 0.149-0.788 0.497-0.247 0.354-0.451 0.72-0.61 1.1-0.159 0.38-0.26 0.625-0.302 0.736v0c-0.064 0.003-0.24-0.032-0.527-0.107-0.284-0.081-0.466-0.182-0.545-0.303v0c0.259-1.098 0.442-2.198 0.547-3.299 0.104-1.095 0.089-2.126-0.045-3.095v0c0.042-0.11 0.164-0.182 0.366-0.217 0.2-0.029 0.355-0.022 0.465 0.02v0c0.086 0.033 0.292 0.133 0.621 0.301 0.326 0.174 0.645 0.345 0.959 0.513 0.314 0.169 0.528 0.276 0.644 0.32v0c0.11 0.042 0.175 0.036 0.196-0.019v0c0.012-0.031 0.001-0.084-0.033-0.16v0c-0.2-0.392-0.418-0.986-0.652-1.783-0.226-0.801-0.384-1.642-0.474-2.523-0.088-0.888-0.01-1.649 0.233-2.285z" fill="#000000" data-fill-palette-color="secondary"></path></g></svg></g></svg></g></svg></g></svg></g><defs></defs></svg><rect width="280" height="280" fill="none" stroke="none" visibility="hidden"></rect></g></svg></g></svg>